<svg width="361" height="71" viewBox="0 0 361 71" fill="none" xmlns="http://www.w3.org/2000/svg">
<rect width="361" height="71" fill="white"/>
<path d="M24.276 44.796C24.276 47.4653 23.748 49.7387 22.692 51.616C21.6653 53.5227 20.2427 54.9747 18.424 55.972C16.6053 56.9987 14.5227 57.556 12.176 57.644V52.672C14.2 52.5547 15.8573 51.88 17.148 50.648C18.468 49.3867 19.128 47.392 19.128 44.664V18.968H24.276V44.796ZM37.6919 39.472C37.6919 40.7333 38.0145 41.892 38.6599 42.948C39.3345 43.9747 40.2145 44.8107 41.2999 45.456C42.3852 46.072 43.6025 46.38 44.9519 46.38C46.3599 46.38 47.6212 46.072 48.7359 45.456C49.8505 44.8107 50.7305 43.9747 51.3759 42.948C52.0212 41.892 52.3439 40.7333 52.3439 39.472V18.968H57.4039V39.604C57.4039 41.9213 56.8465 43.9747 55.7319 45.764C54.6172 47.524 53.1212 48.9027 51.2439 49.9C49.3665 50.868 47.2692 51.352 44.9519 51.352C42.6639 51.352 40.5812 50.868 38.7039 49.9C36.8265 48.9027 35.3305 47.524 34.2159 45.764C33.1305 43.9747 32.5879 41.9213 32.5879 39.604V18.968H37.6919V39.472ZM65.6852 51V17.824H65.7292L82.9772 42.244L80.7772 41.76L97.9372 17.824H98.0252V51H92.9212V29.396L93.2732 32.036L81.7012 48.404H81.6132L69.7772 32.036L70.6572 29.616V51H65.6852ZM103.462 51L117.63 17.648H117.938L132.106 51H126.21L116.222 25.7L119.918 23.192L108.522 51H103.462ZM112.35 39.12H123.306L125.066 43.476H110.81L112.35 39.12ZM165.732 52.144L141.136 28.296L142.632 28.912L142.764 51H137.572V17.868H137.792L162.036 41.716L160.848 41.364L160.76 18.968H165.864V52.144H165.732ZM182.573 44.796C182.573 47.4653 182.045 49.7387 180.989 51.616C179.962 53.5227 178.54 54.9747 176.721 55.972C174.902 56.9987 172.82 57.556 170.473 57.644V52.672C172.497 52.5547 174.154 51.88 175.445 50.648C176.765 49.3867 177.425 47.392 177.425 44.664V18.968H182.573V44.796ZM191.369 18.968H196.517V51H191.369V18.968Z" fill="#A30000"/>
<path d="M206.464 19.76H226.924V21.828H217.728V51H215.572V21.828H206.464V19.76ZM230.797 35.424C230.797 33.224 231.207 31.1707 232.029 29.264C232.85 27.328 233.994 25.6267 235.461 24.16C236.927 22.664 238.614 21.5053 240.521 20.684C242.457 19.8333 244.525 19.408 246.725 19.408C248.925 19.408 250.993 19.8333 252.929 20.684C254.865 21.5053 256.566 22.664 258.033 24.16C259.499 25.6267 260.643 27.328 261.465 29.264C262.315 31.1707 262.741 33.224 262.741 35.424C262.741 37.624 262.315 39.692 261.465 41.628C260.643 43.5347 259.499 45.2213 258.033 46.688C256.566 48.1547 254.865 49.2987 252.929 50.12C250.993 50.9413 248.925 51.352 246.725 51.352C244.525 51.352 242.457 50.956 240.521 50.164C238.614 49.372 236.927 48.2573 235.461 46.82C233.994 45.3827 232.85 43.696 232.029 41.76C231.207 39.824 230.797 37.712 230.797 35.424ZM232.997 35.468C232.997 37.3747 233.349 39.164 234.053 40.836C234.757 42.508 235.739 43.9747 237.001 45.236C238.262 46.4973 239.714 47.4947 241.357 48.228C243.029 48.932 244.803 49.284 246.681 49.284C248.617 49.284 250.421 48.932 252.093 48.228C253.765 47.4947 255.231 46.4973 256.493 45.236C257.754 43.9747 258.737 42.508 259.441 40.836C260.174 39.164 260.541 37.36 260.541 35.424C260.541 33.5173 260.174 31.728 259.441 30.056C258.737 28.3547 257.754 26.8733 256.493 25.612C255.231 24.3213 253.765 23.3093 252.093 22.576C250.421 21.8427 248.631 21.476 246.725 21.476C244.789 21.476 242.985 21.8573 241.313 22.62C239.641 23.3533 238.174 24.3653 236.913 25.656C235.681 26.9467 234.713 28.4427 234.009 30.144C233.334 31.816 232.997 33.5907 232.997 35.468ZM272.698 40.44C272.698 42.2587 273.065 43.828 273.798 45.148C274.561 46.468 275.587 47.4947 276.878 48.228C278.169 48.932 279.635 49.284 281.278 49.284C282.95 49.284 284.431 48.932 285.722 48.228C287.042 47.4947 288.069 46.468 288.802 45.148C289.565 43.828 289.946 42.2587 289.946 40.44V19.76H292.058V40.572C292.058 42.8307 291.574 44.7667 290.606 46.38C289.667 47.9933 288.377 49.2253 286.734 50.076C285.121 50.9267 283.302 51.352 281.278 51.352C279.254 51.352 277.421 50.9267 275.778 50.076C274.165 49.2253 272.889 47.9933 271.95 46.38C271.011 44.7667 270.542 42.8307 270.542 40.572V19.76H272.698V40.44ZM308.955 19.76C310.129 19.76 311.287 19.936 312.431 20.288C313.605 20.6107 314.661 21.1387 315.599 21.872C316.567 22.576 317.345 23.4853 317.931 24.6C318.518 25.7147 318.811 27.0493 318.811 28.604C318.811 29.7773 318.635 30.9213 318.283 32.036C317.931 33.1213 317.359 34.104 316.567 34.984C315.775 35.864 314.749 36.568 313.487 37.096C312.226 37.624 310.671 37.888 308.823 37.888H303.983V51H301.827V19.76H308.955ZM308.691 35.82C310.246 35.82 311.537 35.6 312.563 35.16C313.59 34.72 314.397 34.148 314.983 33.444C315.57 32.74 315.981 31.9773 316.215 31.156C316.479 30.3053 316.611 29.484 316.611 28.692C316.611 27.7533 316.435 26.8733 316.083 26.052C315.761 25.2307 315.277 24.512 314.631 23.896C313.986 23.2507 313.209 22.752 312.299 22.4C311.39 22.0187 310.378 21.828 309.263 21.828H303.983V35.82H308.691ZM313.179 36.788L321.847 51H319.339L310.627 36.832L313.179 36.788ZM345.291 23.28C344.382 22.84 343.267 22.4293 341.947 22.048C340.627 21.6667 339.307 21.476 337.987 21.476C335.934 21.476 334.291 21.9893 333.059 23.016C331.827 24.0427 331.211 25.3333 331.211 26.888C331.211 28.0613 331.563 29.044 332.267 29.836C332.971 30.5987 333.895 31.2587 335.039 31.816C336.183 32.344 337.401 32.8573 338.691 33.356C339.718 33.7373 340.73 34.1627 341.727 34.632C342.754 35.1013 343.678 35.6733 344.499 36.348C345.321 37.0227 345.966 37.8587 346.435 38.856C346.934 39.8533 347.183 41.0853 347.183 42.552C347.183 44.2827 346.773 45.8227 345.951 47.172C345.13 48.492 343.986 49.5187 342.519 50.252C341.053 50.9853 339.351 51.352 337.415 51.352C335.861 51.352 334.438 51.1613 333.147 50.78C331.886 50.3987 330.771 49.9587 329.803 49.46C328.865 48.932 328.117 48.492 327.559 48.14L328.571 46.38C329.217 46.8493 329.994 47.3187 330.903 47.788C331.842 48.2573 332.854 48.6533 333.939 48.976C335.025 49.2987 336.11 49.46 337.195 49.46C338.457 49.46 339.674 49.2107 340.847 48.712C342.05 48.2133 343.033 47.4653 343.795 46.468C344.587 45.4413 344.983 44.1507 344.983 42.596C344.983 41.1 344.617 39.8973 343.883 38.988C343.15 38.0493 342.211 37.2867 341.067 36.7C339.923 36.1133 338.706 35.5853 337.415 35.116C336.418 34.7347 335.421 34.3387 334.423 33.928C333.426 33.488 332.517 32.9747 331.695 32.388C330.874 31.772 330.214 31.0387 329.715 30.188C329.246 29.3373 329.011 28.3107 329.011 27.108C329.011 25.612 329.393 24.3067 330.155 23.192C330.918 22.0773 331.945 21.212 333.235 20.596C334.555 19.9507 336.051 19.6133 337.723 19.584C339.19 19.584 340.671 19.7747 342.167 20.156C343.693 20.5373 345.013 21.0213 346.127 21.608L345.291 23.28Z" fill="#0000A3"/>
</svg>
