<svg width="314" height="71" viewBox="0 0 314 71" fill="none" xmlns="http://www.w3.org/2000/svg">
<rect width="314" height="71" fill="white"/>
<path d="M44.56 52.144L19.964 28.296L21.46 28.912L21.592 51H16.4V17.868H16.62L40.864 41.716L39.676 41.364L39.588 18.968H44.692V52.144H44.56ZM50.181 51L64.349 17.648H64.657L78.825 51H72.929L62.941 25.7L66.637 23.192L55.241 51H50.181ZM59.069 39.12H70.025L71.785 43.476H57.529L59.069 39.12ZM83.1229 18.968L93.1989 44.048L90.2509 43.476L99.6229 18.968H105.695L91.3509 52.496L77.0069 18.968H83.1229ZM111.705 18.968H116.853V51H111.705V18.968ZM122.326 51L136.494 17.648H136.802L150.97 51H145.074L135.086 25.7L138.782 23.192L127.386 51H122.326ZM131.214 39.12H142.17L143.93 43.476H129.674L131.214 39.12Z" fill="#A30000"/>
<path d="M156.464 19.76H176.924V21.828H167.728V51H165.572V21.828H156.464V19.76ZM180.797 35.424C180.797 33.224 181.207 31.1707 182.029 29.264C182.85 27.328 183.994 25.6267 185.461 24.16C186.927 22.664 188.614 21.5053 190.521 20.684C192.457 19.8333 194.525 19.408 196.725 19.408C198.925 19.408 200.993 19.8333 202.929 20.684C204.865 21.5053 206.566 22.664 208.033 24.16C209.499 25.6267 210.643 27.328 211.465 29.264C212.315 31.1707 212.741 33.224 212.741 35.424C212.741 37.624 212.315 39.692 211.465 41.628C210.643 43.5347 209.499 45.2213 208.033 46.688C206.566 48.1547 204.865 49.2987 202.929 50.12C200.993 50.9413 198.925 51.352 196.725 51.352C194.525 51.352 192.457 50.956 190.521 50.164C188.614 49.372 186.927 48.2573 185.461 46.82C183.994 45.3827 182.85 43.696 182.029 41.76C181.207 39.824 180.797 37.712 180.797 35.424ZM182.997 35.468C182.997 37.3747 183.349 39.164 184.053 40.836C184.757 42.508 185.739 43.9747 187.001 45.236C188.262 46.4973 189.714 47.4947 191.357 48.228C193.029 48.932 194.803 49.284 196.681 49.284C198.617 49.284 200.421 48.932 202.093 48.228C203.765 47.4947 205.231 46.4973 206.493 45.236C207.754 43.9747 208.737 42.508 209.441 40.836C210.174 39.164 210.541 37.36 210.541 35.424C210.541 33.5173 210.174 31.728 209.441 30.056C208.737 28.3547 207.754 26.8733 206.493 25.612C205.231 24.3213 203.765 23.3093 202.093 22.576C200.421 21.8427 198.631 21.476 196.725 21.476C194.789 21.476 192.985 21.8573 191.313 22.62C189.641 23.3533 188.174 24.3653 186.913 25.656C185.681 26.9467 184.713 28.4427 184.009 30.144C183.334 31.816 182.997 33.5907 182.997 35.468ZM222.698 40.44C222.698 42.2587 223.065 43.828 223.798 45.148C224.561 46.468 225.587 47.4947 226.878 48.228C228.169 48.932 229.635 49.284 231.278 49.284C232.95 49.284 234.431 48.932 235.722 48.228C237.042 47.4947 238.069 46.468 238.802 45.148C239.565 43.828 239.946 42.2587 239.946 40.44V19.76H242.058V40.572C242.058 42.8307 241.574 44.7667 240.606 46.38C239.667 47.9933 238.377 49.2253 236.734 50.076C235.121 50.9267 233.302 51.352 231.278 51.352C229.254 51.352 227.421 50.9267 225.778 50.076C224.165 49.2253 222.889 47.9933 221.95 46.38C221.011 44.7667 220.542 42.8307 220.542 40.572V19.76H222.698V40.44ZM258.955 19.76C260.129 19.76 261.287 19.936 262.431 20.288C263.605 20.6107 264.661 21.1387 265.599 21.872C266.567 22.576 267.345 23.4853 267.931 24.6C268.518 25.7147 268.811 27.0493 268.811 28.604C268.811 29.7773 268.635 30.9213 268.283 32.036C267.931 33.1213 267.359 34.104 266.567 34.984C265.775 35.864 264.749 36.568 263.487 37.096C262.226 37.624 260.671 37.888 258.823 37.888H253.983V51H251.827V19.76H258.955ZM258.691 35.82C260.246 35.82 261.537 35.6 262.563 35.16C263.59 34.72 264.397 34.148 264.983 33.444C265.57 32.74 265.981 31.9773 266.215 31.156C266.479 30.3053 266.611 29.484 266.611 28.692C266.611 27.7533 266.435 26.8733 266.083 26.052C265.761 25.2307 265.277 24.512 264.631 23.896C263.986 23.2507 263.209 22.752 262.299 22.4C261.39 22.0187 260.378 21.828 259.263 21.828H253.983V35.82H258.691ZM263.179 36.788L271.847 51H269.339L260.627 36.832L263.179 36.788ZM295.291 23.28C294.382 22.84 293.267 22.4293 291.947 22.048C290.627 21.6667 289.307 21.476 287.987 21.476C285.934 21.476 284.291 21.9893 283.059 23.016C281.827 24.0427 281.211 25.3333 281.211 26.888C281.211 28.0613 281.563 29.044 282.267 29.836C282.971 30.5987 283.895 31.2587 285.039 31.816C286.183 32.344 287.401 32.8573 288.691 33.356C289.718 33.7373 290.73 34.1627 291.727 34.632C292.754 35.1013 293.678 35.6733 294.499 36.348C295.321 37.0227 295.966 37.8587 296.435 38.856C296.934 39.8533 297.183 41.0853 297.183 42.552C297.183 44.2827 296.773 45.8227 295.951 47.172C295.13 48.492 293.986 49.5187 292.519 50.252C291.053 50.9853 289.351 51.352 287.415 51.352C285.861 51.352 284.438 51.1613 283.147 50.78C281.886 50.3987 280.771 49.9587 279.803 49.46C278.865 48.932 278.117 48.492 277.559 48.14L278.571 46.38C279.217 46.8493 279.994 47.3187 280.903 47.788C281.842 48.2573 282.854 48.6533 283.939 48.976C285.025 49.2987 286.11 49.46 287.195 49.46C288.457 49.46 289.674 49.2107 290.847 48.712C292.05 48.2133 293.033 47.4653 293.795 46.468C294.587 45.4413 294.983 44.1507 294.983 42.596C294.983 41.1 294.617 39.8973 293.883 38.988C293.15 38.0493 292.211 37.2867 291.067 36.7C289.923 36.1133 288.706 35.5853 287.415 35.116C286.418 34.7347 285.421 34.3387 284.423 33.928C283.426 33.488 282.517 32.9747 281.695 32.388C280.874 31.772 280.214 31.0387 279.715 30.188C279.246 29.3373 279.011 28.3107 279.011 27.108C279.011 25.612 279.393 24.3067 280.155 23.192C280.918 22.0773 281.945 21.212 283.235 20.596C284.555 19.9507 286.051 19.6133 287.723 19.584C289.19 19.584 290.671 19.7747 292.167 20.156C293.693 20.5373 295.013 21.0213 296.127 21.608L295.291 23.28Z" fill="#0000A3"/>
</svg>
